<svg xmlns="http://www.w3.org/2000/svg" width="12" height="12" viewBox="0 0 12 12" fill="none">
  <path fill-rule="evenodd" clip-rule="evenodd" d="M8.72055 9.78312C9.01341 10.0761 9.48821 10.0761 9.78107 9.78312C10.0739 9.49019 10.0739 9.01525 9.78107 8.72231L7.06113 6.00162L9.78107 3.28092C10.0739 2.98799 10.0739 2.51305 9.78107 2.22012C9.48821 1.92718 9.01341 1.92718 8.72055 2.22012L6.00062 4.94081L3.28021 2.21964C2.98736 1.92671 2.51255 1.92671 2.2197 2.21964C1.92685 2.51257 1.92685 2.98751 2.2197 3.28045L4.94011 6.00162L2.2197 8.72279C1.92685 9.01572 1.92685 9.49066 2.2197 9.7836C2.51255 10.0765 2.98736 10.0765 3.28021 9.7836L6.00062 7.06243L8.72055 9.78312Z" fill="current"/>
</svg>