<svg xmlns="http://www.w3.org/2000/svg" width="12" height="12" viewBox="0 0 12 12" fill="none">
<path fill-rule="evenodd" clip-rule="evenodd" d="M8.72049 9.78318C9.01335 10.0761 9.48815 10.0761 9.781 9.78318C10.0739 9.49025 10.0739 9.01531 9.781 8.72237L7.06107 6.00168L9.781 3.28099C10.0739 2.98805 10.0739 2.51311 9.781 2.22018C9.48815 1.92724 9.01335 1.92724 8.72049 2.22018L6.00056 4.94087L3.28015 2.2197C2.9873 1.92677 2.51249 1.92677 2.21964 2.2197C1.92679 2.51263 1.92679 2.98758 2.21964 3.28051L4.94005 6.00168L2.21964 8.72285C1.92679 9.01578 1.92679 9.49072 2.21964 9.78366C2.51249 10.0766 2.9873 10.0766 3.28015 9.78366L6.00056 7.06249L8.72049 9.78318Z" fill="current"/>
</svg>