<svg xmlns="http://www.w3.org/2000/svg" width="16" height="16" viewBox="0 0 16 16" fill="#38373E">
<path fill-rule="evenodd" clip-rule="evenodd" d="M5.7814 1.97858C5.7814 1.42629 5.33368 0.978577 4.7814 0.978577C4.22911 0.978577 3.7814 1.42629 3.7814 1.97858V2.66196C2.44771 2.77294 1.3999 3.89056 1.3999 5.25291V12.0161C1.3999 13.4521 2.56396 14.6161 3.9999 14.6161H11.9999C13.4358 14.6161 14.5999 13.4521 14.5999 12.0161V5.25291C14.5999 3.89064 13.5522 2.77307 12.2187 2.66198V1.97858C12.2187 1.42629 11.7709 0.978577 11.2187 0.978577C10.6664 0.978577 10.2187 1.42629 10.2187 1.97858V2.65291H5.7814V1.97858ZM13.3999 5.30255V5.25291C13.3999 4.47971 12.7731 3.85291 11.9999 3.85291H3.9999C3.2267 3.85291 2.5999 4.47971 2.5999 5.25291V5.30255H13.3999ZM2.5999 6.54734V12.0161C2.5999 12.7893 3.2267 13.4161 3.9999 13.4161H11.9999C12.7731 13.4161 13.3999 12.7893 13.3999 12.0161V6.54734L2.5999 6.54734ZM4.18325 8.41444C4.18325 8.0707 4.46804 7.79204 4.81934 7.79204H5.30864C5.65994 7.79204 5.94472 8.0707 5.94472 8.41444V8.8932C5.94472 9.23694 5.65994 9.5156 5.30864 9.5156H4.81934C4.46804 9.5156 4.18325 9.23694 4.18325 8.8932V8.41444ZM4.18325 10.7125C4.18325 10.3688 4.46804 10.0901 4.81934 10.0901H5.30864C5.65994 10.0901 5.94472 10.3688 5.94472 10.7125V11.1913C5.94472 11.535 5.65994 11.8137 5.30864 11.8137H4.81934C4.46804 11.8137 4.18325 11.535 4.18325 11.1913V10.7125ZM7.75521 7.79204C7.40391 7.79204 7.11913 8.0707 7.11913 8.41444V8.8932C7.11913 9.23694 7.40391 9.5156 7.75521 9.5156H8.24451C8.59581 9.5156 8.8806 9.23694 8.8806 8.8932V8.41444C8.8806 8.0707 8.59581 7.79204 8.24451 7.79204H7.75521ZM7.11913 10.7125C7.11913 10.3688 7.40391 10.0901 7.75521 10.0901H8.24451C8.59581 10.0901 8.8806 10.3688 8.8806 10.7125V11.1913C8.8806 11.535 8.59581 11.8137 8.24451 11.8137H7.75521C7.40391 11.8137 7.11913 11.535 7.11913 11.1913V10.7125ZM10.6909 7.79204C10.3396 7.79204 10.0548 8.0707 10.0548 8.41444V8.8932C10.0548 9.23694 10.3396 9.5156 10.6909 9.5156H11.1802C11.5315 9.5156 11.8163 9.23694 11.8163 8.8932V8.41444C11.8163 8.0707 11.5315 7.79204 11.1802 7.79204H10.6909ZM10.0548 10.7125C10.0548 10.3688 10.3396 10.0901 10.6909 10.0901H11.1802C11.5315 10.0901 11.8163 10.3688 11.8163 10.7125V11.1913C11.8163 11.535 11.5315 11.8137 11.1802 11.8137H10.6909C10.3396 11.8137 10.0548 11.535 10.0548 11.1913V10.7125Z" />
</svg>