<svg xmlns="http://www.w3.org/2000/svg" width="16" height="16" viewBox="0 0 16 16" fill="#38373E">
<path fill-rule="evenodd" clip-rule="evenodd" d="M7.47142 7.4707C7.33072 7.61136 7.25167 7.80216 7.25167 8.00111C7.25167 8.20006 7.33072 8.39086 7.47142 8.53152L11.2237 12.2826C11.5166 12.5755 11.9915 12.5754 12.2843 12.2824C12.5772 11.9895 12.5771 11.5146 12.2842 11.2218L9.0625 8.00111L12.2842 4.78044C12.5771 4.48759 12.5772 4.01272 12.2843 3.71978C11.9915 3.42684 11.5166 3.42677 11.2237 3.71961L7.47142 7.4707ZM3.71968 7.4707C3.57898 7.61136 3.49993 7.80216 3.49993 8.00111C3.49993 8.20006 3.57898 8.39086 3.71968 8.53152L7.47191 12.2826C7.76485 12.5755 8.23973 12.5754 8.53257 12.2824C8.82542 11.9895 8.82535 11.5146 8.53241 11.2218L5.31075 8.00111L8.53241 4.78044C8.82535 4.48759 8.82542 4.01272 8.53257 3.71978C8.23973 3.42684 7.76485 3.42677 7.47191 3.71961L3.71968 7.4707Z" />
</svg>