<svg xmlns="http://www.w3.org/2000/svg" width="16" height="16" viewBox="0 0 16 16" fill="#38373E">
<path fill-rule="evenodd" clip-rule="evenodd" d="M8.53248 8.5315C8.67318 8.39084 8.75223 8.20004 8.75223 8.00109C8.75223 7.80213 8.67318 7.61133 8.53248 7.47067L4.78025 3.71959C4.48731 3.42674 4.01244 3.42681 3.71959 3.71975C3.42674 4.01269 3.42681 4.48756 3.71975 4.78041L6.94141 8.00109L3.71975 11.2218C3.42681 11.5146 3.42674 11.9895 3.71959 12.2824C4.01244 12.5754 4.48731 12.5754 4.78025 12.2826L8.53248 8.5315ZM12.2842 8.5315C12.4249 8.39084 12.504 8.20004 12.504 8.00109C12.504 7.80213 12.4249 7.61133 12.2842 7.47067L8.53199 3.71959C8.23905 3.42674 7.76418 3.42681 7.47133 3.71975C7.17848 4.01269 7.17856 4.48756 7.47149 4.78041L10.6932 8.00109L7.47149 11.2218C7.17856 11.5146 7.17848 11.9895 7.47133 12.2824C7.76418 12.5754 8.23905 12.5754 8.53199 12.2826L12.2842 8.5315Z" />
</svg>