<svg xmlns="http://www.w3.org/2000/svg" width="14" height="16" viewBox="0 0 14 16" fill="none">
  <path d="M2.3335 4.66675H11.6668V13.3334C11.6668 13.687 11.5263 14.0262 11.2762 14.2762C11.0262 14.5263 10.6871 14.6667 10.3335 14.6667H3.66683C3.31321 14.6667 2.97401 14.5263 2.72396 14.2762C2.47391 14.0262 2.3335 13.687 2.3335 13.3334V4.66675Z" stroke="#B5B4B4" stroke-width="1.2" stroke-miterlimit="10"/>
  <path d="M0.333496 4.66671H2.76676C3.0319 4.66617 3.29089 4.58663 3.51058 4.43819C3.73027 4.28975 3.90074 4.07916 4.00016 3.83337L4.66683 2.17338C4.76521 1.92635 4.93518 1.71434 5.15495 1.56466C5.37472 1.41497 5.63416 1.33445 5.90006 1.33337H8.1001C8.366 1.33445 8.62544 1.41497 8.84521 1.56466C9.06499 1.71434 9.23511 1.92635 9.3335 2.17338L10.0002 3.83337C10.1 4.08021 10.2713 4.29154 10.4923 4.44006C10.7134 4.58859 10.9738 4.6675 11.2401 4.66671H13.6668" stroke="#B5B4B4" stroke-width="1.2" stroke-miterlimit="10"/>
</svg>