<svg width="16" height="16" viewBox="0 0 16 16" fill="none" xmlns="http://www.w3.org/2000/svg">
<path d="M3.33337 4.66675H12.6667V13.3334C12.6667 13.687 12.5261 14.0262 12.2761 14.2762C12.026 14.5263 11.687 14.6667 11.3334 14.6667H4.66671C4.31309 14.6667 3.97388 14.5263 3.72384 14.2762C3.47379 14.0262 3.33337 13.687 3.33337 13.3334V4.66675Z" stroke="#636364" stroke-width="1.2" stroke-miterlimit="10"/>
<path d="M1.33337 4.66671H3.76664C4.03178 4.66617 4.29077 4.58663 4.51046 4.43819C4.73014 4.28975 4.90062 4.07916 5.00004 3.83337L5.66671 2.17338C5.76509 1.92635 5.93505 1.71434 6.15483 1.56466C6.3746 1.41497 6.63404 1.33445 6.89994 1.33337H9.09998C9.36588 1.33445 9.62532 1.41497 9.84509 1.56466C10.0649 1.71434 10.235 1.92635 10.3334 2.17338L11 3.83337C11.0999 4.08021 11.2712 4.29154 11.4922 4.44006C11.7132 4.58859 11.9737 4.6675 12.2399 4.66671H14.6667" stroke="#636364" stroke-width="1.2" stroke-miterlimit="10"/>
</svg>
