<svg width="16" height="16" viewBox="0 0 16 16" fill="none" xmlns="http://www.w3.org/2000/svg">
<g id="ic-basic-handle-s24">
<path id="Vector" d="M4.66667 5.66663C4.66667 5.86441 4.60802 6.05775 4.49814 6.2222C4.38826 6.38665 4.23208 6.51482 4.04936 6.59051C3.86663 6.66619 3.66556 6.686 3.47158 6.64741C3.2776 6.60883 3.09942 6.51359 2.95957 6.37373C2.81971 6.23388 2.72447 6.0557 2.68589 5.86172C2.6473 5.66774 2.66711 5.46667 2.74279 5.28394C2.81848 5.10122 2.94665 4.94504 3.1111 4.83516C3.27555 4.72528 3.46889 4.66663 3.66667 4.66663C3.93189 4.66663 4.18624 4.77198 4.37378 4.95952C4.56132 5.14706 4.66667 5.40141 4.66667 5.66663ZM7.91667 4.66663C7.71889 4.66663 7.52555 4.72528 7.3611 4.83516C7.19665 4.94504 7.06848 5.10122 6.99279 5.28394C6.9171 5.46667 6.8973 5.66774 6.93589 5.86172C6.97447 6.0557 7.06971 6.23388 7.20957 6.37373C7.34942 6.51359 7.5276 6.60883 7.72158 6.64741C7.91556 6.686 8.11663 6.66619 8.29936 6.59051C8.48208 6.51482 8.63826 6.38665 8.74814 6.2222C8.85802 6.05775 8.91667 5.86441 8.91667 5.66663C8.91667 5.40141 8.81131 5.14706 8.62378 4.95952C8.43624 4.77198 8.18189 4.66663 7.91667 4.66663ZM12.1667 6.66663C12.3645 6.66663 12.5578 6.60798 12.7222 6.4981C12.8867 6.38821 13.0149 6.23204 13.0906 6.04931C13.1662 5.86658 13.186 5.66552 13.1475 5.47154C13.1089 5.27756 13.0136 5.09937 12.8738 4.95952C12.7339 4.81967 12.5557 4.72443 12.3618 4.68584C12.1678 4.64726 11.9667 4.66706 11.784 4.74275C11.6013 4.81843 11.4451 4.94661 11.3352 5.11106C11.2253 5.27551 11.1667 5.46885 11.1667 5.66663C11.1667 5.93184 11.272 6.1862 11.4596 6.37373C11.6471 6.56127 11.9015 6.66663 12.1667 6.66663ZM3.66667 9.16663C3.46889 9.16663 3.27555 9.22528 3.1111 9.33516C2.94665 9.44504 2.81848 9.60122 2.74279 9.78394C2.66711 9.96667 2.6473 10.1677 2.68589 10.3617C2.72447 10.5557 2.81971 10.7339 2.95957 10.8737C3.09942 11.0136 3.2776 11.1088 3.47158 11.1474C3.66556 11.186 3.86663 11.1662 4.04936 11.0905C4.23208 11.0148 4.38826 10.8866 4.49814 10.7222C4.60802 10.5577 4.66667 10.3644 4.66667 10.1666C4.66667 9.90141 4.56132 9.64706 4.37378 9.45952C4.18624 9.27198 3.93189 9.16663 3.66667 9.16663ZM7.91667 9.16663C7.71889 9.16663 7.52555 9.22528 7.3611 9.33516C7.19665 9.44504 7.06848 9.60122 6.99279 9.78394C6.9171 9.96667 6.8973 10.1677 6.93589 10.3617C6.97447 10.5557 7.06971 10.7339 7.20957 10.8737C7.34942 11.0136 7.5276 11.1088 7.72158 11.1474C7.91556 11.186 8.11663 11.1662 8.29936 11.0905C8.48208 11.0148 8.63826 10.8866 8.74814 10.7222C8.85802 10.5577 8.91667 10.3644 8.91667 10.1666C8.91667 9.90141 8.81131 9.64706 8.62378 9.45952C8.43624 9.27198 8.18189 9.16663 7.91667 9.16663ZM12.1667 9.16663C11.9689 9.16663 11.7756 9.22528 11.6111 9.33516C11.4467 9.44504 11.3185 9.60122 11.2428 9.78394C11.1671 9.96667 11.1473 10.1677 11.1859 10.3617C11.2245 10.5557 11.3197 10.7339 11.4596 10.8737C11.5994 11.0136 11.7776 11.1088 11.9716 11.1474C12.1656 11.186 12.3666 11.1662 12.5494 11.0905C12.7321 11.0148 12.8883 10.8866 12.9981 10.7222C13.108 10.5577 13.1667 10.3644 13.1667 10.1666C13.1667 9.90141 13.0613 9.64706 12.8738 9.45952C12.6862 9.27198 12.4319 9.16663 12.1667 9.16663Z" fill="#8A8A8E"/>
</g>
</svg>
