<svg width="16" height="16" viewBox="0 0 16 16" fill="none" xmlns="http://www.w3.org/2000/svg">
    <path fill-rule="evenodd" clip-rule="evenodd" d="M8.35365 1.00003C5.62349 1.00837 3.65796 3.23214 3.65796 5.73318C3.65637 6.87908 4.0709 7.98618 4.82379 8.84685C5.26593 9.35378 5.9575 10.4126 6.22112 11.3062C6.22112 11.3111 6.22204 11.316 6.22296 11.3209L6.22407 11.3272H10.5127C10.5127 11.3224 10.5135 11.3178 10.5144 11.313L10.5156 11.3062C10.7792 10.4128 11.4708 9.35378 11.913 8.84685C13.1322 7.44779 13.4225 5.46071 12.655 3.76855C11.8874 2.07639 10.2043 0.9931 8.35365 1.00003ZM8.36819 3.58172C7.18625 3.58306 6.22842 4.5455 6.2271 5.73315C6.2271 5.9708 6.03538 6.16344 5.79888 6.16344C5.56238 6.16344 5.37066 5.9708 5.37066 5.73315C5.37243 4.07041 6.71343 2.72293 8.36819 2.72115C8.60469 2.72115 8.79641 2.91379 8.79641 3.15144C8.79641 3.38908 8.60469 3.58172 8.36819 3.58172ZM6.22705 12.1875L6.22866 13.2188C6.22907 13.3878 6.27896 13.5529 6.37211 13.6935L6.8295 14.3852C6.98823 14.625 7.25584 14.7692 7.54249 14.7692H9.19407C9.48067 14.7692 9.74827 14.6252 9.90706 14.3855L10.3644 13.6935C10.4581 13.553 10.5084 13.3879 10.5092 13.2188V12.1875H6.22705Z" fill="current"/>
</svg>
