<svg width="30" height="30" viewBox="0 0 30 30" fill="none" xmlns="http://www.w3.org/2000/svg">
<path d="M20 23.0017V23.6517H20.0004L20 23.0017ZM15.0295 7.00189L15.0297 6.35189L15.0295 7.00189ZM7 16.9998L6.35 16.9995L6.35 17.0002L7 16.9998ZM9.50928 14.4905L9.04966 14.0309L9.50928 14.4905ZM21.0005 7.00329L21.0007 6.35329L21.0005 7.00329ZM19.35 12.9997C19.35 13.7453 18.7456 14.3497 18 14.3497V15.6497C19.4636 15.6497 20.65 14.4633 20.65 12.9997H19.35ZM18 11.6497C18.7456 11.6497 19.35 12.2541 19.35 12.9997H20.65C20.65 11.5362 19.4636 10.3497 18 10.3497V11.6497ZM16.65 12.9997C16.65 12.2541 17.2544 11.6497 18 11.6497V10.3497C16.5365 10.3497 15.35 11.5362 15.35 12.9997H16.65ZM18 14.3497C17.2544 14.3497 16.65 13.7453 16.65 12.9997H15.35C15.35 14.4633 16.5365 15.6497 18 15.6497V14.3497ZM20.0004 23.6517L21.0018 23.6511L21.0009 22.3511L19.9996 22.3517L20.0004 23.6517ZM23.65 21.0011V9.00329H22.35V21.0011H23.65ZM9.00287 23.6517H20V22.3517H9.00287V23.6517ZM11.927 15.0017L19.5168 23.4365L20.4832 22.567L12.8934 14.1321L11.927 15.0017ZM21.0007 6.35329L15.0297 6.35189L15.0294 7.65189L21.0003 7.65329L21.0007 6.35329ZM15.0297 6.35189L9.00406 6.35047L9.00376 7.65047L15.0294 7.65189L15.0297 6.35189ZM7.45962 17.4594L9.96889 14.9501L9.04966 14.0309L6.54038 16.5401L7.45962 17.4594ZM6.35 17.0002L6.35287 21.0036L7.65287 21.0027L7.65 16.9993L6.35 17.0002ZM6.35344 8.99933L6.35 16.9995L7.65 17L7.65344 8.99989L6.35344 8.99933ZM12.8934 14.1321C11.8778 13.0034 10.1233 12.9572 9.04966 14.0309L9.96889 14.9501C10.5159 14.4031 11.4096 14.4267 11.927 15.0017L12.8934 14.1321ZM9.00287 22.3517C8.25766 22.3517 7.6534 21.7479 7.65287 21.0027L6.35287 21.0036C6.35392 22.4665 7.54006 23.6517 9.00287 23.6517V22.3517ZM9.00406 6.35047C7.54071 6.35013 6.35407 7.53598 6.35344 8.99933L7.65344 8.99989C7.65376 8.25441 8.25828 7.65029 9.00376 7.65047L9.00406 6.35047ZM23.65 9.00329C23.65 7.53998 22.464 6.35364 21.0007 6.35329L21.0003 7.65329C21.7458 7.65347 22.35 8.25783 22.35 9.00329H23.65ZM21.0018 23.6511C22.4647 23.6501 23.65 22.4639 23.65 21.0011H22.35C22.35 21.7463 21.7462 22.3506 21.0009 22.3511L21.0018 23.6511Z" fill="#929292"/>
</svg>
