<svg width="16" height="16" viewBox="0 0 16 16" fill="none" xmlns="http://www.w3.org/2000/svg">
<g id="ic-navi-more-s24">
<path id="Union" fill-rule="evenodd" clip-rule="evenodd" d="M8.99974 3.3335C8.99974 2.78121 8.55202 2.3335 7.99974 2.3335C7.44746 2.3335 6.99974 2.78121 6.99974 3.3335V7H3.33374C2.78146 7 2.33374 7.44772 2.33374 8C2.33374 8.55229 2.78146 9 3.33374 9H6.99974V12.6664C6.99974 13.2187 7.44746 13.6664 7.99974 13.6664C8.55202 13.6664 8.99974 13.2187 8.99974 12.6664V9H12.6662C13.2185 9 13.6662 8.55229 13.6662 8C13.6662 7.44772 13.2185 7 12.6662 7H8.99974V3.3335Z" fill="#38373E"/>
</g>
</svg>
