<svg width="30" height="30" viewBox="0 0 30 30" fill="none" xmlns="http://www.w3.org/2000/svg">
<path d="M20 23.0017L21.0014 23.0011C22.1054 23.0003 23 22.1051 23 21.0011V9.00329C23 7.8989 22.1049 7.00355 21.0005 7.00329L15.0295 7.00189L9.00391 7.00047C7.89949 7.00021 7.00392 7.89519 7.00344 8.99961L7 16.9998M20 23.0017H9.00287C7.89886 23.0017 7.00366 22.1072 7.00287 21.0032L7 16.9998M20 23.0017L12.4102 14.5669C11.6437 13.7151 10.3196 13.6802 9.50928 14.4905L7 16.9998M20 12.9997C20 14.1043 19.1046 14.9997 18 14.9997C16.8954 14.9997 16 14.1043 16 12.9997C16 11.8952 16.8954 10.9997 18 10.9997C19.1046 10.9997 20 11.8952 20 12.9997Z" stroke="#B5B4B4" stroke-width="1.3" stroke-linecap="round" stroke-linejoin="round"/>
<path d="M6 24.5L24 6.5" stroke="#929292" stroke-width="1.3" stroke-linecap="round"/>
</svg>
